<?xml version="1.0" encoding="utf-8"?>
<svg width="471px" height="90px" viewBox="0 0 471 90" version="1.1" xmlns:xlink="http://www.w3.org/1999/xlink" xmlns="http://www.w3.org/2000/svg">
  <defs>
    <linearGradient gradientUnits="userSpaceOnUse" x1="376.99997" y1="97" x2="96.51989" y2="-6.6113116E-06" id="gradient_1">
      <stop offset="0%" stop-color="#0C4653" />
      <stop offset="100%" stop-color="#1A8198" stop-opacity="0" />
    </linearGradient>
    <path d="M0 0L33 0L33 65.6L0 65.6L0 0Z" id="path_1" />
    <path d="M383.41 76.59L383.41 47.34L376.93 47.34L376.93 38.43L383.41 38.43L383.41 23.49Q383.41 15.57 387.415 11.025Q391.42 6.48 399.07 6.48Q401.23 6.48 403.84 7.10999Q406.45 7.74 408.43 9.08999L404.2 16.38Q403.3 15.48 402.22 15.12Q401.14 14.76 400.15 14.76Q397.09 14.76 395.29 16.83Q393.49 18.9 393.49 23.76L393.49 38.43L405.37 38.43L405.37 47.34L393.49 47.34L393.49 76.59L383.41 76.59ZM40.42 13.59Q35.11 11.07 27.64 11.07L9.10001 11.07L9.10001 76.59L19.63 76.59L19.63 53.82L29.08 53.82Q35.29 53.82 39.565 51.93Q43.84 50.04 46.405 46.89Q48.97 43.74 50.185 39.87Q51.4 36 51.4 32.13Q51.4 25.47 48.565 20.79Q45.73 16.11 40.42 13.59ZM168.355 20.97Q166.51 22.5 166.51 24.84Q166.51 27.09 168.355 28.62Q170.2 30.15 172.36 30.15Q174.52 30.15 176.23 28.665Q177.94 27.18 177.94 24.84Q177.94 22.5 176.23 20.97Q174.52 19.44 172.36 19.44Q170.2 19.44 168.355 20.97ZM34.84 42.57Q32.5 43.74 29.08 43.74L19.63 43.74L19.63 21.15L29.35 21.15Q32.86 21.15 35.11 22.275Q37.36 23.4 38.62 25.155Q39.88 26.91 40.42 28.845Q40.96 30.78 40.96 32.31Q40.96 33.84 40.375 35.82Q39.79 37.8 38.485 39.6Q37.18 41.4 34.84 42.57ZM430.03 21.78L419.95 21.78L419.95 38.52L413.38 38.52L413.38 46.44L419.95 46.44L419.95 76.59L430.03 76.59L430.03 46.44L439.93 46.44L439.93 38.52L430.03 38.52L430.03 21.78ZM68.275 75.33Q72.64 77.58 77.95 77.58Q81.37 77.58 83.935 76.59Q86.5 75.6 88.39 74.16Q90.28 72.72 91.405 71.505Q91.6237 71.2688 91.81 71.0582L91.81 76.59L101.89 76.59L101.89 38.52L92.62 38.52L91.8909 43.6899Q90.0377 41.0617 86.905 39.015Q83.53 36.81 78.04 36.81Q72.91 36.81 68.545 39.33Q64.18 41.85 61.525 46.485Q58.87 51.12 58.87 57.6Q58.87 64.17 61.39 68.625Q63.91 73.08 68.275 75.33ZM241.705 46.755Q238.96 51.39 238.96 57.15Q238.96 63.45 241.705 68.04Q244.45 72.63 249.265 75.105Q254.08 77.58 260.29 77.58Q266.68 77.58 271.45 74.88Q276.22 72.18 278.785 67.545Q281.35 62.91 281.35 57.15Q281.35 51.39 278.785 46.755Q276.22 42.12 271.495 39.465Q266.77 36.81 260.38 36.81Q254.17 36.81 249.31 39.465Q244.45 42.12 241.705 46.755ZM329.725 46.755Q326.98 51.39 326.98 57.15Q326.98 63.45 329.725 68.04Q332.47 72.63 337.285 75.105Q342.1 77.58 348.31 77.58Q354.7 77.58 359.47 74.88Q364.24 72.18 366.805 67.545Q369.37 62.91 369.37 57.15Q369.37 51.39 366.805 46.755Q364.24 42.12 359.515 39.465Q354.79 36.81 348.4 36.81Q342.19 36.81 337.33 39.465Q332.47 42.12 329.725 46.755ZM124.84 38.52L125.516 45.3528Q127.41 41.5859 131.23 39.285Q135.19 36.9 140.59 36.9Q145.99 36.9 149.5 40.05Q153.01 43.2 153.1 48.33L153.1 76.59L143.02 76.59L143.02 51.93Q142.93 49.05 141.4 47.295Q139.87 45.54 136.54 45.45Q133.48 45.45 131.05 47.295Q128.62 49.14 127.225 52.335Q125.83 55.53 125.83 59.67L125.83 76.59L115.75 76.59L115.75 38.52L124.84 38.52ZM199.99 38.52L200.666 45.3528Q202.56 41.5859 206.38 39.285Q210.34 36.9 215.74 36.9Q221.14 36.9 224.65 40.05Q228.16 43.2 228.25 48.33L228.25 76.59L218.17 76.59L218.17 51.93Q218.08 49.05 216.55 47.295Q215.02 45.54 211.69 45.45Q208.63 45.45 206.2 47.295Q203.77 49.14 202.375 52.335Q200.98 55.53 200.98 59.67L200.98 76.59L190.9 76.59L190.9 38.52L199.99 38.52ZM303.49 77.4Q299.17 77.4 295.255 75.87Q291.34 74.34 288.73 71.37L292.96 65.7Q295.48 68.13 297.955 69.255Q300.43 70.38 302.68 70.38Q304.39 70.38 305.785 69.975Q307.18 69.57 308.035 68.67Q308.89 67.77 308.89 66.24Q308.89 64.44 307.63 63.405Q306.37 62.37 304.39 61.695Q302.41 61.02 300.16 60.39Q295.3 58.77 292.87 55.845Q290.44 52.92 290.44 49.05Q290.44 46.08 291.97 43.335Q293.5 40.59 296.65 38.79Q299.8 36.99 304.57 36.99Q308.89 36.99 312.085 37.98Q315.28 38.97 318.07 41.13L314.2 47.25Q312.58 45.63 310.375 44.775Q308.17 43.92 306.37 43.83Q304.75 43.74 303.49 44.235Q302.23 44.73 301.42 45.63Q300.61 46.53 300.61 47.7Q300.61 49.5 301.915 50.58Q303.22 51.66 305.29 52.29Q307.36 52.92 309.43 53.64Q312.22 54.45 314.335 55.89Q316.45 57.33 317.71 59.355Q318.97 61.38 318.97 64.35Q318.97 67.77 317.26 70.785Q315.55 73.8 312.13 75.6Q308.71 77.4 303.49 77.4ZM177.04 38.52L166.96 38.52L166.96 76.59L177.04 76.59L177.04 38.52ZM85.78 68.31Q83.53 69.3 80.74 69.3Q77.68 69.3 74.98 67.68Q72.28 66.06 70.66 63.27Q69.04 60.48 69.04 57.06Q69.04 53.55 70.615 50.85Q72.19 48.15 74.755 46.62Q77.32 45.09 80.47 45.09Q83.26 45.09 85.555 46.08Q87.85 47.07 89.47 48.825Q91.09 50.58 91.81 52.92L91.81 61.2Q91.09 63.72 89.56 65.52Q88.03 67.32 85.78 68.31ZM250.57 63.315Q249.13 60.57 249.13 57.24Q249.13 53.82 250.57 51.12Q252.01 48.42 254.485 46.755Q256.96 45.09 260.11 45.09Q263.44 45.09 265.915 46.71Q268.39 48.33 269.785 51.075Q271.18 53.82 271.18 57.24Q271.18 60.57 269.785 63.315Q268.39 66.06 265.915 67.68Q263.44 69.3 260.11 69.3Q257.05 69.3 254.53 67.68Q252.01 66.06 250.57 63.315ZM338.59 63.315Q337.15 60.57 337.15 57.24Q337.15 53.82 338.59 51.12Q340.03 48.42 342.505 46.755Q344.98 45.09 348.13 45.09Q351.46 45.09 353.935 46.71Q356.41 48.33 357.805 51.075Q359.2 53.82 359.2 57.24Q359.2 60.57 357.805 63.315Q356.41 66.06 353.935 67.68Q351.46 69.3 348.13 69.3Q345.07 69.3 342.55 67.68Q340.03 66.06 338.59 63.315Z" id="path_2" />
    <clipPath id="mask_1">
      <use xlink:href="#path_1" />
    </clipPath>
    <clipPath id="mask_2">
      <use xlink:href="#path_2" />
    </clipPath>
  </defs>
  <g id="Logo">
    <g id="Burgher" transform="translate(0 11)">
      <g id="Bread-Mask">
        <path d="M0 0L33 0L33 65.6L0 65.6L0 0Z" id="Half-Mask" fill="#000000" fill-opacity="0" fill-rule="evenodd" stroke="none" />
        <g clip-path="url(#mask_1)">
          <path d="M32.8 0C14.6851 0 0 14.6851 0 32.8C0 50.9149 14.6851 65.6 32.8 65.6C50.9149 65.6 65.6 50.9149 65.6 32.8C65.6 14.6851 50.9149 0 32.8 0ZM15.4337 9.53611C14.8321 10.4625 14.7199 11.4573 15.1831 11.7581C15.6462 12.0589 16.5094 11.5518 17.111 10.6254C17.7126 9.69901 17.8248 8.7042 17.3616 8.4034C16.8984 8.10261 16.0353 8.60974 15.4337 9.53611ZM25.1732 16.7795C24.4199 17.5873 24.1367 18.5475 24.5406 18.9242C24.9445 19.3008 25.8826 18.9513 26.6359 18.1435C27.3893 17.3356 27.6725 16.3754 27.2686 15.9988C26.8647 15.6221 25.9265 15.9716 25.1732 16.7795ZM6.99268 20.576C6.31264 21.4464 6.11416 22.4277 6.54936 22.7677C6.98457 23.1077 7.88866 22.6778 8.5687 21.8073C9.24874 20.9369 9.44722 19.9557 9.01201 19.6157C8.5768 19.2756 7.67272 19.7056 6.99268 20.576ZM17.8911 27.4578C16.8467 27.8174 16.1458 28.5322 16.3256 29.0544C16.5054 29.5766 17.4978 29.7084 18.5422 29.3488C19.5866 28.9892 20.2875 28.2744 20.1077 27.7522C19.9279 27.23 18.9355 27.0982 17.8911 27.4578ZM24.6451 29.7143C24.0762 30.6611 23.9988 31.6593 24.4722 31.9437C24.9456 32.2282 25.7905 31.6912 26.3594 30.7444C26.9283 29.7976 27.0057 28.7995 26.5323 28.515C26.0589 28.2306 25.214 28.7675 24.6451 29.7143ZM6.17752 30.5904C5.74593 31.6072 5.80818 32.6063 6.31656 32.8221C6.82495 33.0379 7.58694 32.3886 8.01853 31.3719C8.45012 30.3551 8.38787 29.3559 7.87949 29.1401C7.37111 28.9243 6.60911 29.5736 6.17752 30.5904ZM14.011 36.209C12.9124 36.0936 11.9751 36.4452 11.9174 36.9945C11.8597 37.5438 12.7034 38.0826 13.8019 38.1981C14.9004 38.3135 15.8377 37.9619 15.8955 37.4126C15.9532 36.8634 15.1095 36.3245 14.011 36.209ZM25.0938 41.244C24.1571 41.8294 23.635 42.6836 23.9276 43.1519C24.2203 43.6203 25.2169 43.5255 26.1537 42.9401C27.0904 42.3548 27.6125 41.5006 27.3198 41.0323C27.0272 40.5639 26.0305 40.6587 25.0938 41.244ZM11.2681 47.9177C10.2012 47.6318 9.22037 47.8325 9.07743 48.366C8.93449 48.8994 9.68353 49.5636 10.7505 49.8495C11.8174 50.1354 12.7982 49.9347 12.9411 49.4012C13.0841 48.8678 12.335 48.2035 11.2681 47.9177ZM24.5564 56.4578C23.512 56.8174 22.8111 57.5322 22.9909 58.0544C23.1707 58.5766 24.1631 58.7084 25.2075 58.3488C26.2519 57.9892 26.9528 57.2744 26.773 56.7522C26.5931 56.23 25.6007 56.0982 24.5564 56.4578Z" id="Circle-subtract" fill="#188198" fill-rule="evenodd" stroke="none" />
        </g>
      </g>
    </g>
    <g id="Text" transform="translate(28 0)">
      <g id="Paninosoft" fill="#188198">
        <path d="M383.41 76.59L383.41 47.34L376.93 47.34L376.93 38.43L383.41 38.43L383.41 23.49Q383.41 15.57 387.415 11.025Q391.42 6.48 399.07 6.48Q401.23 6.48 403.84 7.10999Q406.45 7.74 408.43 9.08999L404.2 16.38Q403.3 15.48 402.22 15.12Q401.14 14.76 400.15 14.76Q397.09 14.76 395.29 16.83Q393.49 18.9 393.49 23.76L393.49 38.43L405.37 38.43L405.37 47.34L393.49 47.34L393.49 76.59L383.41 76.59ZM40.42 13.59Q35.11 11.07 27.64 11.07L9.10001 11.07L9.10001 76.59L19.63 76.59L19.63 53.82L29.08 53.82Q35.29 53.82 39.565 51.93Q43.84 50.04 46.405 46.89Q48.97 43.74 50.185 39.87Q51.4 36 51.4 32.13Q51.4 25.47 48.565 20.79Q45.73 16.11 40.42 13.59ZM168.355 20.97Q166.51 22.5 166.51 24.84Q166.51 27.09 168.355 28.62Q170.2 30.15 172.36 30.15Q174.52 30.15 176.23 28.665Q177.94 27.18 177.94 24.84Q177.94 22.5 176.23 20.97Q174.52 19.44 172.36 19.44Q170.2 19.44 168.355 20.97ZM34.84 42.57Q32.5 43.74 29.08 43.74L19.63 43.74L19.63 21.15L29.35 21.15Q32.86 21.15 35.11 22.275Q37.36 23.4 38.62 25.155Q39.88 26.91 40.42 28.845Q40.96 30.78 40.96 32.31Q40.96 33.84 40.375 35.82Q39.79 37.8 38.485 39.6Q37.18 41.4 34.84 42.57ZM430.03 21.78L419.95 21.78L419.95 38.52L413.38 38.52L413.38 46.44L419.95 46.44L419.95 76.59L430.03 76.59L430.03 46.44L439.93 46.44L439.93 38.52L430.03 38.52L430.03 21.78ZM68.275 75.33Q72.64 77.58 77.95 77.58Q81.37 77.58 83.935 76.59Q86.5 75.6 88.39 74.16Q90.28 72.72 91.405 71.505Q91.6237 71.2688 91.81 71.0582L91.81 76.59L101.89 76.59L101.89 38.52L92.62 38.52L91.8909 43.6899Q90.0377 41.0617 86.905 39.015Q83.53 36.81 78.04 36.81Q72.91 36.81 68.545 39.33Q64.18 41.85 61.525 46.485Q58.87 51.12 58.87 57.6Q58.87 64.17 61.39 68.625Q63.91 73.08 68.275 75.33ZM241.705 46.755Q238.96 51.39 238.96 57.15Q238.96 63.45 241.705 68.04Q244.45 72.63 249.265 75.105Q254.08 77.58 260.29 77.58Q266.68 77.58 271.45 74.88Q276.22 72.18 278.785 67.545Q281.35 62.91 281.35 57.15Q281.35 51.39 278.785 46.755Q276.22 42.12 271.495 39.465Q266.77 36.81 260.38 36.81Q254.17 36.81 249.31 39.465Q244.45 42.12 241.705 46.755ZM329.725 46.755Q326.98 51.39 326.98 57.15Q326.98 63.45 329.725 68.04Q332.47 72.63 337.285 75.105Q342.1 77.58 348.31 77.58Q354.7 77.58 359.47 74.88Q364.24 72.18 366.805 67.545Q369.37 62.91 369.37 57.15Q369.37 51.39 366.805 46.755Q364.24 42.12 359.515 39.465Q354.79 36.81 348.4 36.81Q342.19 36.81 337.33 39.465Q332.47 42.12 329.725 46.755ZM124.84 38.52L125.516 45.3528Q127.41 41.5859 131.23 39.285Q135.19 36.9 140.59 36.9Q145.99 36.9 149.5 40.05Q153.01 43.2 153.1 48.33L153.1 76.59L143.02 76.59L143.02 51.93Q142.93 49.05 141.4 47.295Q139.87 45.54 136.54 45.45Q133.48 45.45 131.05 47.295Q128.62 49.14 127.225 52.335Q125.83 55.53 125.83 59.67L125.83 76.59L115.75 76.59L115.75 38.52L124.84 38.52ZM199.99 38.52L200.666 45.3528Q202.56 41.5859 206.38 39.285Q210.34 36.9 215.74 36.9Q221.14 36.9 224.65 40.05Q228.16 43.2 228.25 48.33L228.25 76.59L218.17 76.59L218.17 51.93Q218.08 49.05 216.55 47.295Q215.02 45.54 211.69 45.45Q208.63 45.45 206.2 47.295Q203.77 49.14 202.375 52.335Q200.98 55.53 200.98 59.67L200.98 76.59L190.9 76.59L190.9 38.52L199.99 38.52ZM303.49 77.4Q299.17 77.4 295.255 75.87Q291.34 74.34 288.73 71.37L292.96 65.7Q295.48 68.13 297.955 69.255Q300.43 70.38 302.68 70.38Q304.39 70.38 305.785 69.975Q307.18 69.57 308.035 68.67Q308.89 67.77 308.89 66.24Q308.89 64.44 307.63 63.405Q306.37 62.37 304.39 61.695Q302.41 61.02 300.16 60.39Q295.3 58.77 292.87 55.845Q290.44 52.92 290.44 49.05Q290.44 46.08 291.97 43.335Q293.5 40.59 296.65 38.79Q299.8 36.99 304.57 36.99Q308.89 36.99 312.085 37.98Q315.28 38.97 318.07 41.13L314.2 47.25Q312.58 45.63 310.375 44.775Q308.17 43.92 306.37 43.83Q304.75 43.74 303.49 44.235Q302.23 44.73 301.42 45.63Q300.61 46.53 300.61 47.7Q300.61 49.5 301.915 50.58Q303.22 51.66 305.29 52.29Q307.36 52.92 309.43 53.64Q312.22 54.45 314.335 55.89Q316.45 57.33 317.71 59.355Q318.97 61.38 318.97 64.35Q318.97 67.77 317.26 70.785Q315.55 73.8 312.13 75.6Q308.71 77.4 303.49 77.4ZM177.04 38.52L166.96 38.52L166.96 76.59L177.04 76.59L177.04 38.52ZM85.78 68.31Q83.53 69.3 80.74 69.3Q77.68 69.3 74.98 67.68Q72.28 66.06 70.66 63.27Q69.04 60.48 69.04 57.06Q69.04 53.55 70.615 50.85Q72.19 48.15 74.755 46.62Q77.32 45.09 80.47 45.09Q83.26 45.09 85.555 46.08Q87.85 47.07 89.47 48.825Q91.09 50.58 91.81 52.92L91.81 61.2Q91.09 63.72 89.56 65.52Q88.03 67.32 85.78 68.31ZM250.57 63.315Q249.13 60.57 249.13 57.24Q249.13 53.82 250.57 51.12Q252.01 48.42 254.485 46.755Q256.96 45.09 260.11 45.09Q263.44 45.09 265.915 46.71Q268.39 48.33 269.785 51.075Q271.18 53.82 271.18 57.24Q271.18 60.57 269.785 63.315Q268.39 66.06 265.915 67.68Q263.44 69.3 260.11 69.3Q257.05 69.3 254.53 67.68Q252.01 66.06 250.57 63.315ZM338.59 63.315Q337.15 60.57 337.15 57.24Q337.15 53.82 338.59 51.12Q340.03 48.42 342.505 46.755Q344.98 45.09 348.13 45.09Q351.46 45.09 353.935 46.71Q356.41 48.33 357.805 51.075Q359.2 53.82 359.2 57.24Q359.2 60.57 357.805 63.315Q356.41 66.06 353.935 67.68Q351.46 69.3 348.13 69.3Q345.07 69.3 342.55 67.68Q340.03 66.06 338.59 63.315Z" />
      </g>
      <g clip-path="url(#mask_2)">
        <path d="M443 90L5 90L5 -7L443 -7L443 90Z" id="Inner-Shadow" fill="url(#gradient_1)" fill-rule="evenodd" stroke="none" />
      </g>
    </g>
  </g>
</svg>