<?xml version="1.0" encoding="utf-8"?>
<svg width="443px" height="90px" viewBox="0 0 443 90" version="1.1" xmlns:xlink="http://www.w3.org/1999/xlink" xmlns="http://www.w3.org/2000/svg">
  <defs>
    <linearGradient gradientUnits="userSpaceOnUse" x1="376.99997" y1="97" x2="96.51989" y2="-6.6113116E-06" id="gradient_1">
      <stop offset="0%" stop-color="#0C4653" />
      <stop offset="100%" stop-color="#1A8198" stop-opacity="0" />
    </linearGradient>
    <path d="M203.77 77.58Q198.46 77.58 194.185 75.06Q189.91 72.54 187.48 67.86Q185.05 63.18 185.05 56.97Q185.05 50.58 187.66 46.08Q190.27 41.58 194.815 39.195Q199.36 36.81 205.03 36.81Q209.17 36.81 212.95 38.385Q216.581 39.8978 218.8 42.6977L218.8 6.38999L228.79 6.38999L228.79 76.59L218.71 76.59L218.71 71.4612Q216.16 73.8675 212.86 75.555Q208.9 77.58 203.77 77.58ZM32.59 11.07L49.8879 54.1259L66.43 11.07L78.76 11.07L49.42 79.65L20.08 11.07L32.59 11.07ZM244.045 20.97Q242.2 22.5 242.2 24.84Q242.2 27.09 244.045 28.62Q245.89 30.15 248.05 30.15Q250.21 30.15 251.92 28.665Q253.63 27.18 253.63 24.84Q253.63 22.5 251.92 20.97Q250.21 19.44 248.05 19.44Q245.89 19.44 244.045 20.97ZM270.28 21.78L280.36 21.78L280.36 38.52L290.26 38.52L290.26 46.44L280.36 46.44L280.36 76.59L270.28 76.59L270.28 46.44L263.71 46.44L263.71 38.52L270.28 38.52L270.28 21.78ZM107.2 77.58Q100.45 77.58 95.68 74.97Q90.91 72.36 88.39 67.77Q85.87 63.18 85.87 57.24Q85.87 51.57 88.75 46.935Q91.63 42.3 96.535 39.555Q101.44 36.81 107.38 36.81Q115.21 36.81 120.295 41.355Q125.38 45.9 127.09 54.18L97.8068 64.0555Q99.2396 66.203 101.44 67.455Q104.05 68.94 107.38 68.94Q109.72 68.94 111.835 68.13Q113.95 67.32 115.93 65.97L120.52 73.44Q117.55 75.33 113.995 76.455Q110.44 77.58 107.2 77.58ZM299.755 46.755Q297.01 51.39 297.01 57.15Q297.01 63.45 299.755 68.04Q302.5 72.63 307.315 75.105Q312.13 77.58 318.34 77.58Q324.73 77.58 329.5 74.88Q334.27 72.18 336.835 67.545Q339.4 62.91 339.4 57.15Q339.4 51.39 336.835 46.755Q334.27 42.12 329.545 39.465Q324.82 36.81 318.43 36.81Q312.22 36.81 307.36 39.465Q302.5 42.12 299.755 46.755ZM359.2 38.52L359.937 47.3648Q361.448 44.2176 364.105 41.94Q366.94 39.51 369.955 38.16Q372.97 36.81 374.86 36.81L374.41 46.89Q370.09 46.53 366.895 48.42Q363.7 50.31 361.9 53.505Q360.1 56.7 360.1 60.21L360.1 76.59L350.11 76.59L350.11 38.52L359.2 38.52ZM391.87 74.97Q396.64 77.58 403.39 77.58Q406.63 77.58 410.185 76.455Q413.74 75.33 416.71 73.44L412.12 65.97Q410.14 67.32 408.025 68.13Q405.91 68.94 403.57 68.94Q400.24 68.94 397.63 67.455Q395.43 66.203 393.997 64.0556L423.28 54.18Q421.57 45.9 416.485 41.355Q411.4 36.81 403.57 36.81Q397.63 36.81 392.725 39.555Q387.82 42.3 384.94 46.935Q382.06 51.57 382.06 57.24Q382.06 63.18 384.58 67.77Q387.1 72.36 391.87 74.97ZM392.026 58.228Q391.96 57.4864 391.96 56.7Q391.96 53.1 393.355 50.445Q394.75 47.79 397.18 46.26Q399.61 44.73 402.76 44.73Q406.72 44.73 408.97 46.755Q411.07 48.6451 411.994 51.1233L392.026 58.228ZM146.756 45.3528L146.08 38.52L136.99 38.52L136.99 76.59L147.07 76.59L147.07 59.67Q147.07 55.53 148.465 52.335Q149.86 49.14 152.29 47.295Q154.72 45.45 157.78 45.45Q161.11 45.54 162.64 47.295Q164.17 49.05 164.26 51.93L164.26 76.59L174.34 76.59L174.34 48.33Q174.25 43.2 170.74 40.05Q167.23 36.9 161.83 36.9Q156.43 36.9 152.47 39.285Q148.65 41.5859 146.756 45.3528ZM252.73 38.52L242.65 38.52L242.65 76.59L252.73 76.59L252.73 38.52ZM95.77 56.7Q95.77 57.4864 95.8362 58.228L115.804 51.1233Q114.88 48.6451 112.78 46.755Q110.53 44.73 106.57 44.73Q103.42 44.73 100.99 46.26Q98.56 47.79 97.165 50.445Q95.77 53.1 95.77 56.7ZM206.92 69.03Q209.98 69.03 212.275 68.04Q214.57 67.05 216.235 65.205Q217.9 63.36 218.71 60.84L218.71 52.74Q217.99 50.4 216.325 48.6Q214.66 46.8 212.23 45.765Q209.8 44.73 206.92 44.73Q203.77 44.73 201.115 46.305Q198.46 47.88 196.84 50.58Q195.22 53.28 195.22 56.79Q195.22 60.21 196.84 63Q198.46 65.79 201.16 67.41Q203.86 69.03 206.92 69.03ZM308.62 63.315Q307.18 60.57 307.18 57.24Q307.18 53.82 308.62 51.12Q310.06 48.42 312.535 46.755Q315.01 45.09 318.16 45.09Q321.49 45.09 323.965 46.71Q326.44 48.33 327.835 51.075Q329.23 53.82 329.23 57.24Q329.23 60.57 327.835 63.315Q326.44 66.06 323.965 67.68Q321.49 69.3 318.16 69.3Q315.1 69.3 312.58 67.68Q310.06 66.06 308.62 63.315Z" id="path_1" />
    <clipPath id="mask_1">
      <use xlink:href="#path_1" />
    </clipPath>
  </defs>
  <g id="Backoffice">
    <g id="Venditore" fill="#188198">
      <path d="M203.77 77.58Q198.46 77.58 194.185 75.06Q189.91 72.54 187.48 67.86Q185.05 63.18 185.05 56.97Q185.05 50.58 187.66 46.08Q190.27 41.58 194.815 39.195Q199.36 36.81 205.03 36.81Q209.17 36.81 212.95 38.385Q216.581 39.8978 218.8 42.6977L218.8 6.38999L228.79 6.38999L228.79 76.59L218.71 76.59L218.71 71.4612Q216.16 73.8675 212.86 75.555Q208.9 77.58 203.77 77.58ZM32.59 11.07L49.8879 54.1259L66.43 11.07L78.76 11.07L49.42 79.65L20.08 11.07L32.59 11.07ZM244.045 20.97Q242.2 22.5 242.2 24.84Q242.2 27.09 244.045 28.62Q245.89 30.15 248.05 30.15Q250.21 30.15 251.92 28.665Q253.63 27.18 253.63 24.84Q253.63 22.5 251.92 20.97Q250.21 19.44 248.05 19.44Q245.89 19.44 244.045 20.97ZM270.28 21.78L280.36 21.78L280.36 38.52L290.26 38.52L290.26 46.44L280.36 46.44L280.36 76.59L270.28 76.59L270.28 46.44L263.71 46.44L263.71 38.52L270.28 38.52L270.28 21.78ZM107.2 77.58Q100.45 77.58 95.68 74.97Q90.91 72.36 88.39 67.77Q85.87 63.18 85.87 57.24Q85.87 51.57 88.75 46.935Q91.63 42.3 96.535 39.555Q101.44 36.81 107.38 36.81Q115.21 36.81 120.295 41.355Q125.38 45.9 127.09 54.18L97.8068 64.0555Q99.2396 66.203 101.44 67.455Q104.05 68.94 107.38 68.94Q109.72 68.94 111.835 68.13Q113.95 67.32 115.93 65.97L120.52 73.44Q117.55 75.33 113.995 76.455Q110.44 77.58 107.2 77.58ZM299.755 46.755Q297.01 51.39 297.01 57.15Q297.01 63.45 299.755 68.04Q302.5 72.63 307.315 75.105Q312.13 77.58 318.34 77.58Q324.73 77.58 329.5 74.88Q334.27 72.18 336.835 67.545Q339.4 62.91 339.4 57.15Q339.4 51.39 336.835 46.755Q334.27 42.12 329.545 39.465Q324.82 36.81 318.43 36.81Q312.22 36.81 307.36 39.465Q302.5 42.12 299.755 46.755ZM359.2 38.52L359.937 47.3648Q361.448 44.2176 364.105 41.94Q366.94 39.51 369.955 38.16Q372.97 36.81 374.86 36.81L374.41 46.89Q370.09 46.53 366.895 48.42Q363.7 50.31 361.9 53.505Q360.1 56.7 360.1 60.21L360.1 76.59L350.11 76.59L350.11 38.52L359.2 38.52ZM391.87 74.97Q396.64 77.58 403.39 77.58Q406.63 77.58 410.185 76.455Q413.74 75.33 416.71 73.44L412.12 65.97Q410.14 67.32 408.025 68.13Q405.91 68.94 403.57 68.94Q400.24 68.94 397.63 67.455Q395.43 66.203 393.997 64.0556L423.28 54.18Q421.57 45.9 416.485 41.355Q411.4 36.81 403.57 36.81Q397.63 36.81 392.725 39.555Q387.82 42.3 384.94 46.935Q382.06 51.57 382.06 57.24Q382.06 63.18 384.58 67.77Q387.1 72.36 391.87 74.97ZM392.026 58.228Q391.96 57.4864 391.96 56.7Q391.96 53.1 393.355 50.445Q394.75 47.79 397.18 46.26Q399.61 44.73 402.76 44.73Q406.72 44.73 408.97 46.755Q411.07 48.6451 411.994 51.1233L392.026 58.228ZM146.756 45.3528L146.08 38.52L136.99 38.52L136.99 76.59L147.07 76.59L147.07 59.67Q147.07 55.53 148.465 52.335Q149.86 49.14 152.29 47.295Q154.72 45.45 157.78 45.45Q161.11 45.54 162.64 47.295Q164.17 49.05 164.26 51.93L164.26 76.59L174.34 76.59L174.34 48.33Q174.25 43.2 170.74 40.05Q167.23 36.9 161.83 36.9Q156.43 36.9 152.47 39.285Q148.65 41.5859 146.756 45.3528ZM252.73 38.52L242.65 38.52L242.65 76.59L252.73 76.59L252.73 38.52ZM95.77 56.7Q95.77 57.4864 95.8362 58.228L115.804 51.1233Q114.88 48.6451 112.78 46.755Q110.53 44.73 106.57 44.73Q103.42 44.73 100.99 46.26Q98.56 47.79 97.165 50.445Q95.77 53.1 95.77 56.7ZM206.92 69.03Q209.98 69.03 212.275 68.04Q214.57 67.05 216.235 65.205Q217.9 63.36 218.71 60.84L218.71 52.74Q217.99 50.4 216.325 48.6Q214.66 46.8 212.23 45.765Q209.8 44.73 206.92 44.73Q203.77 44.73 201.115 46.305Q198.46 47.88 196.84 50.58Q195.22 53.28 195.22 56.79Q195.22 60.21 196.84 63Q198.46 65.79 201.16 67.41Q203.86 69.03 206.92 69.03ZM308.62 63.315Q307.18 60.57 307.18 57.24Q307.18 53.82 308.62 51.12Q310.06 48.42 312.535 46.755Q315.01 45.09 318.16 45.09Q321.49 45.09 323.965 46.71Q326.44 48.33 327.835 51.075Q329.23 53.82 329.23 57.24Q329.23 60.57 327.835 63.315Q326.44 66.06 323.965 67.68Q321.49 69.3 318.16 69.3Q315.1 69.3 312.58 67.68Q310.06 66.06 308.62 63.315Z" />
    </g>
    <g clip-path="url(#mask_1)">
      <path d="M443 90L5 90L5 -7L443 -7L443 90Z" id="Inner-Shadow" fill="url(#gradient_1)" fill-rule="evenodd" stroke="none" />
    </g>
  </g>
</svg>